<svg width="403" height="48" viewBox="0 0 403 48" fill="none" xmlns="http://www.w3.org/2000/svg">
    <rect x="16" y="18" width="374" height="12" rx="6" fill="#C7B5F9"/>
    <rect x="16" y="18" width="179" height="12" rx="6" fill="#826AC5"/>
    <circle cx="20" cy="24" r="20" fill="#826AC5"/>
    <path d="M14.24 37c-1.467 0-2.2-.72-2.2-2.16 0-1.387.733-2.08 2.2-2.08h4.48V14.64l-3.4 2.04c-.64.373-1.227.467-1.76.28a2.135 2.135 0 0 1-1.16-1 2.25 2.25 0 0 1-.24-1.56c.107-.587.48-1.067 1.12-1.44l5.52-3.32c.533-.32 1.067-.587 1.6-.8.533-.24 1.027-.36 1.48-.36.56 0 1.027.16 1.4.48.373.293.56.787.56 1.48v22.32h4.08c1.467 0 2.2.693 2.2 2.08 0 1.44-.733 2.16-2.2 2.16H14.24z" fill="#fff"/>
    <circle cx="195" cy="24" r="20" fill="#826AC5"/>
    <path d="M188.32 37c-.853 0-1.48-.187-1.88-.56-.373-.4-.56-.973-.56-1.72 0-.453.12-.893.36-1.32.24-.427.587-.88 1.04-1.36l8.04-8.56c1.227-1.28 2.107-2.44 2.64-3.48.533-1.067.8-2.133.8-3.2 0-2.72-1.64-4.08-4.92-4.08-.907 0-1.813.133-2.72.4-.907.24-1.827.667-2.76 1.28-.587.4-1.133.52-1.64.36a1.966 1.966 0 0 1-1.16-.96 2.571 2.571 0 0 1-.28-1.6c.107-.56.453-1.04 1.04-1.44A13.292 13.292 0 0 1 190.16 9c1.44-.4 2.88-.6 4.32-.6 3.013 0 5.32.68 6.92 2.04 1.627 1.36 2.44 3.307 2.44 5.84 0 1.707-.413 3.347-1.24 4.92-.8 1.573-2.067 3.267-3.8 5.08l-6.2 6.48h10.44c1.467 0 2.2.693 2.2 2.08 0 1.44-.733 2.16-2.2 2.16h-14.72z" fill="#fff"/>
    <circle cx="383" cy="24" r="20" fill="#C7B5F9"/>
    <path d="M382.44 37.4c-1.44 0-2.933-.187-4.48-.56-1.547-.373-2.893-.933-4.04-1.68-.667-.453-1.067-.96-1.2-1.52-.133-.587-.067-1.107.2-1.56.267-.48.667-.8 1.2-.96.56-.16 1.187-.053 1.88.32 1.093.587 2.147 1.013 3.16 1.28 1.013.24 2.053.36 3.12.36 3.6 0 5.4-1.413 5.4-4.24 0-1.333-.453-2.32-1.36-2.96-.88-.667-2.173-1-3.88-1h-2.56c-.747 0-1.32-.187-1.72-.56-.373-.373-.56-.893-.56-1.56s.187-1.187.56-1.56c.4-.373.973-.56 1.72-.56h2.08c1.493 0 2.68-.36 3.56-1.08.88-.747 1.32-1.773 1.32-3.08 0-1.227-.413-2.16-1.24-2.8-.8-.64-1.973-.96-3.52-.96-.987 0-1.92.12-2.8.36-.853.213-1.8.627-2.84 1.24-.613.373-1.173.48-1.68.32a2.367 2.367 0 0 1-1.2-.96c-.267-.48-.347-1-.24-1.56.107-.56.48-1.04 1.12-1.44 2.347-1.52 5.04-2.28 8.08-2.28 2.933 0 5.213.667 6.84 2 1.627 1.307 2.44 3.133 2.44 5.48 0 1.52-.387 2.853-1.16 4-.773 1.147-1.827 1.973-3.16 2.48 1.627.453 2.893 1.293 3.8 2.52.907 1.2 1.36 2.667 1.36 4.4 0 2.507-.907 4.493-2.72 5.96-1.813 1.44-4.307 2.16-7.48 2.16z" fill="#fff"/>
</svg>
