<svg width="410" height="48" viewBox="0 0 410 48" fill="none" xmlns="http://www.w3.org/2000/svg">
    <rect x="16" y="18" width="374" height="12" rx="6" fill="#826AC4"/>
    <circle cx="20" cy="24" r="20" fill="#826AC5"/>
    <path d="M14.24 37c-1.467 0-2.2-.72-2.2-2.16 0-1.387.733-2.08 2.2-2.08h4.48V14.64l-3.4 2.04c-.64.373-1.227.467-1.76.28a2.135 2.135 0 0 1-1.16-1 2.25 2.25 0 0 1-.24-1.56c.107-.587.48-1.067 1.12-1.44l5.52-3.32c.533-.32 1.067-.587 1.6-.8.533-.24 1.027-.36 1.48-.36.56 0 1.027.16 1.4.48.373.293.56.787.56 1.48v22.32h4.08c1.467 0 2.2.693 2.2 2.08 0 1.44-.733 2.16-2.2 2.16H14.24z" fill="#fff"/>
    <circle cx="201" cy="24" r="20" fill="#826AC5"/>
    <path d="M194.32 37c-.853 0-1.48-.187-1.88-.56-.373-.4-.56-.973-.56-1.72 0-.453.12-.893.36-1.32.24-.427.587-.88 1.04-1.36l8.04-8.56c1.227-1.28 2.107-2.44 2.64-3.48.533-1.067.8-2.133.8-3.2 0-2.72-1.64-4.08-4.92-4.08-.907 0-1.813.133-2.72.4-.907.24-1.827.667-2.76 1.28-.587.4-1.133.52-1.64.36a1.966 1.966 0 0 1-1.16-.96 2.571 2.571 0 0 1-.28-1.6c.107-.56.453-1.04 1.04-1.44A13.292 13.292 0 0 1 196.16 9c1.44-.4 2.88-.6 4.32-.6 3.013 0 5.32.68 6.92 2.04 1.627 1.36 2.44 3.307 2.44 5.84 0 1.707-.413 3.347-1.24 4.92-.8 1.573-2.067 3.267-3.8 5.08l-6.2 6.48h10.44c1.467 0 2.2.693 2.2 2.08 0 1.44-.733 2.16-2.2 2.16h-14.72z" fill="#fff"/>
    <circle cx="390" cy="24" r="20" fill="#826AC4"/>
    <path d="M394.32 22.52c1.68.427 2.96 1.24 3.84 2.44.907 1.173 1.36 2.64 1.36 4.4 0 2.427-.893 4.36-2.68 5.8-1.787 1.44-4.2 2.16-7.24 2.16-1.733 0-3.4-.267-5-.8s-2.96-1.28-4.08-2.24c-.613-.533-.92-1.16-.92-1.88 0-.587.16-1.08.48-1.48.347-.427.747-.64 1.2-.64.267 0 .507.053.72.16.213.08.507.227.88.44 1.12.747 2.187 1.32 3.2 1.72 1.013.4 2.12.6 3.32.6 1.76 0 3.067-.347 3.92-1.04.853-.72 1.28-1.8 1.28-3.24 0-1.413-.453-2.453-1.36-3.12-.88-.693-2.253-1.04-4.12-1.04h-2.28c-.613 0-1.093-.2-1.44-.6a2.34 2.34 0 0 1-.48-1.44c0-.56.16-1.04.48-1.44.347-.4.827-.6 1.44-.6h1.6c3.653 0 5.48-1.373 5.48-4.12 0-1.28-.387-2.267-1.16-2.96-.773-.693-1.84-1.04-3.2-1.04-1.947 0-4.027.773-6.24 2.32-.373.213-.667.373-.88.48-.213.08-.453.12-.72.12-.453 0-.853-.2-1.2-.6-.32-.427-.48-.933-.48-1.52 0-.4.067-.733.2-1 .16-.293.4-.587.72-.88 1.12-.933 2.453-1.667 4-2.2 1.573-.56 3.173-.84 4.8-.84 2.773 0 4.973.68 6.6 2.04 1.653 1.36 2.48 3.173 2.48 5.44-.027 1.547-.44 2.907-1.24 4.08-.773 1.147-1.867 1.987-3.28 2.52z" fill="#fff"/>
</svg>
