<svg width="12" height="32" viewBox="0 0 12 32" fill="none" xmlns="http://www.w3.org/2000/svg">
<path d="M5.798 19.696C5.46867 19.696 5.20867 19.592 5.018 19.384C4.84467 19.1587 4.758 18.864 4.758 18.5C4.758 17.7027 4.90533 16.9573 5.2 16.264C5.512 15.5707 6.032 14.8167 6.76 14.002C7.31467 13.3953 7.696 12.8753 7.904 12.442C8.12933 12.0087 8.242 11.5493 8.242 11.064C8.242 10.492 8.034 10.0413 7.618 9.712C7.202 9.38267 6.61267 9.218 5.85 9.218C5.15667 9.218 4.524 9.31333 3.952 9.504C3.39733 9.67733 2.834 9.92867 2.262 10.258C1.794 10.5353 1.378 10.6307 1.014 10.544C0.667333 10.44 0.416 10.232 0.26 9.92C0.104 9.608 0.078 9.26133 0.182 8.88C0.286 8.49867 0.563333 8.16067 1.014 7.866C1.72467 7.398 2.53933 7.04267 3.458 6.8C4.37667 6.54 5.24333 6.41 6.058 6.41C7.15 6.41 8.10333 6.592 8.918 6.956C9.75 7.32 10.3913 7.82267 10.842 8.464C11.31 9.10533 11.544 9.85933 11.544 10.726C11.544 11.5233 11.362 12.2687 10.998 12.962C10.6513 13.6553 10.0273 14.4093 9.126 15.224C8.31133 15.9693 7.748 16.6107 7.436 17.148C7.124 17.6853 6.92467 18.2573 6.838 18.864C6.82067 19.1067 6.71667 19.306 6.526 19.462C6.35267 19.618 6.11 19.696 5.798 19.696ZM5.746 25.13C5.15667 25.13 4.68 24.948 4.316 24.584C3.96933 24.22 3.796 23.752 3.796 23.18C3.796 22.6253 3.96933 22.1747 4.316 21.828C4.68 21.464 5.15667 21.282 5.746 21.282C6.35267 21.282 6.82067 21.464 7.15 21.828C7.49667 22.1747 7.67 22.6253 7.67 23.18C7.67 23.752 7.49667 24.22 7.15 24.584C6.82067 24.948 6.35267 25.13 5.746 25.13Z" fill="#374146"/>
</svg>
