<svg width="247" height="315" viewBox="0 0 247 315" fill="none" xmlns="http://www.w3.org/2000/svg">
    <g filter="url(#i7kihdrr5a)">
        <path d="M4 10C4 4.477 8.477 0 14 0h219c5.523 0 10 4.477 10 10v287c0 5.523-4.477 10-10 10H14c-5.523 0-10-4.477-10-10V10z" fill="#FAEDE6"/>
    </g>
    <path d="M54.502 193.855c-.214 0-.352-.064-.416-.192-.064-.139-.054-.304.032-.496l4.496-10.336c.128-.299.325-.448.592-.448.266 0 .464.149.592.448l4.496 10.336c.096.192.112.357.048.496-.054.128-.182.192-.384.192a.586.586 0 0 1-.368-.112 1.172 1.172 0 0 1-.224-.336l-1.136-2.656h-6.048l-1.136 2.656c-.128.298-.31.448-.544.448zm4.688-10.16-2.64 6.208h5.312l-2.64-6.208h-.032zm1.376-2.896c-.427 0-.64-.214-.64-.64 0-.416.213-.624.64-.624.426 0 .64.208.64.624 0 .426-.214.64-.64.64zm-2.672 0c-.438 0-.656-.214-.656-.64 0-.416.218-.624.656-.624.416 0 .624.208.624.624 0 .426-.208.64-.624.64zm8.859 13.056c-.331 0-.496-.166-.496-.496v-6.96c0-.342.165-.512.496-.512.309 0 .464.17.464.512v1.008a2.535 2.535 0 0 1 1.04-1.152c.469-.267 1.008-.406 1.616-.416a.45.45 0 0 1 .32.08c.085.064.128.165.128.304.01.298-.144.464-.464.496l-.224.016c-.758.064-1.344.314-1.76.752-.416.426-.624 1.002-.624 1.728v4.144c0 .33-.166.496-.496.496zm9.5 0c-.331 0-.496-.166-.496-.496v-6.96c0-.342.165-.512.496-.512.309 0 .464.17.464.512v.992a2.568 2.568 0 0 1 1.104-1.152 3.346 3.346 0 0 1 1.6-.384c1.845 0 2.768 1.002 2.768 3.008v4.496c0 .33-.16.496-.48.496-.331 0-.496-.166-.496-.496v-4.416c0-.768-.155-1.334-.464-1.696-.31-.363-.8-.544-1.472-.544-.768 0-1.387.24-1.856.72-.46.469-.688 1.104-.688 1.904v4.032c0 .33-.16.496-.48.496zm10.857.032c-.523 0-.992-.102-1.408-.304a2.565 2.565 0 0 1-.976-.832 2.088 2.088 0 0 1-.352-1.184c0-.576.144-1.024.432-1.344.288-.331.773-.566 1.456-.704.682-.139 1.621-.208 2.816-.208h.496v-.576c0-.715-.144-1.232-.432-1.552-.288-.331-.747-.496-1.376-.496-.406 0-.8.053-1.184.16a5.357 5.357 0 0 0-1.2.512c-.192.106-.347.112-.464.016a.543.543 0 0 1-.16-.4c.01-.171.101-.299.272-.384.437-.246.89-.427 1.36-.544.469-.128.922-.192 1.36-.192.938 0 1.632.24 2.08.72.458.48.688 1.216.688 2.208v4.576c0 .33-.15.496-.448.496-.32 0-.48-.166-.48-.496v-.992a2.44 2.44 0 0 1-.976 1.12c-.427.266-.928.4-1.504.4zm.128-.784c.458 0 .858-.107 1.2-.32a2.37 2.37 0 0 0 .832-.912 2.77 2.77 0 0 0 .304-1.312v-.528h-.48c-.96 0-1.712.042-2.256.128-.534.085-.907.234-1.12.448-.214.213-.32.506-.32.88 0 .48.165.869.496 1.168.33.298.778.448 1.344.448zm.48-8.096c-.523 0-.96-.176-1.312-.528a1.744 1.744 0 0 1-.528-1.28c0-.502.176-.923.528-1.264.352-.352.789-.528 1.312-.528.522 0 .96.176 1.312.528.352.341.528.762.528 1.264 0 .501-.176.928-.528 1.28-.352.352-.79.528-1.312.528zm0-.592c.352 0 .64-.118.864-.352.224-.235.336-.523.336-.864 0-.342-.112-.624-.336-.848-.224-.235-.512-.352-.864-.352s-.64.117-.864.352a1.148 1.148 0 0 0-.336.848c0 .341.112.629.336.864.224.234.512.352.864.352zm8.727 12.352a6.331 6.331 0 0 1-1.68-.224 4.261 4.261 0 0 1-1.456-.688c-.15-.096-.213-.219-.192-.368a.561.561 0 0 1 .208-.368c.117-.086.245-.086.384 0 .48.32.928.538 1.344.656.427.117.88.176 1.36.176.779 0 1.37-.214 1.776-.64.405-.427.608-1.046.608-1.856v-1.504a2.545 2.545 0 0 1-1.072 1.2c-.48.288-1.03.432-1.648.432-.725 0-1.35-.16-1.872-.48a3.383 3.383 0 0 1-1.2-1.36c-.277-.587-.416-1.264-.416-2.032s.139-1.44.416-2.016a3.268 3.268 0 0 1 1.2-1.344c.523-.331 1.147-.496 1.872-.496.619 0 1.163.144 1.632.432.48.277.837.666 1.072 1.168v-1.056c0-.342.16-.512.48-.512.32 0 .48.17.48.512v6.912c0 2.304-1.099 3.456-3.296 3.456zm-.256-4.016c.8 0 1.435-.272 1.904-.816.47-.555.704-1.296.704-2.224 0-.928-.235-1.664-.704-2.208-.47-.544-1.104-.816-1.904-.816-.81 0-1.45.272-1.92.816-.459.544-.688 1.28-.688 2.208 0 .928.23 1.669.688 2.224.47.544 1.11.816 1.92.816zm9.218 1.136c-.725 0-1.355-.16-1.888-.48a3.377 3.377 0 0 1-1.248-1.392c-.288-.608-.432-1.323-.432-2.144 0-.811.144-1.515.432-2.112.299-.608.715-1.078 1.248-1.408.533-.331 1.163-.496 1.888-.496.736 0 1.371.165 1.904.496.533.33.944.8 1.232 1.408.299.597.448 1.301.448 2.112 0 .821-.149 1.536-.448 2.144a3.268 3.268 0 0 1-1.232 1.392c-.533.32-1.168.48-1.904.48zm0-.816c.789 0 1.419-.278 1.888-.832.469-.566.704-1.355.704-2.368 0-1.014-.235-1.798-.704-2.352-.469-.555-1.099-.832-1.888-.832-.789 0-1.419.277-1.888.832-.459.554-.688 1.338-.688 2.352 0 1.013.229 1.802.688 2.368.469.554 1.099.832 1.888.832zm6.158.784c-.331 0-.496-.166-.496-.496v-6.96c0-.342.165-.512.496-.512.309 0 .464.17.464.512v.992a2.568 2.568 0 0 1 1.104-1.152 3.345 3.345 0 0 1 1.6-.384c1.845 0 2.768 1.002 2.768 3.008v4.496c0 .33-.16.496-.48.496-.331 0-.496-.166-.496-.496v-4.416c0-.768-.155-1.334-.464-1.696-.309-.363-.8-.544-1.472-.544-.768 0-1.387.24-1.856.72-.459.469-.688 1.104-.688 1.904v4.032c0 .33-.16.496-.48.496zm15.016.032c-.48 0-.96-.064-1.44-.192a4.15 4.15 0 0 1-1.344-.656c-.138-.086-.202-.203-.192-.352a.49.49 0 0 1 .176-.368c.118-.086.262-.075.432.032a4.2 4.2 0 0 0 1.216.576c.395.106.79.16 1.184.16.662 0 1.158-.118 1.488-.352.342-.246.512-.582.512-1.008 0-.331-.112-.592-.336-.784-.224-.192-.576-.347-1.056-.464l-1.392-.32c-1.312-.299-1.968-.976-1.968-2.032 0-.683.267-1.232.8-1.648.534-.416 1.238-.624 2.112-.624.459 0 .902.069 1.328.208a3.04 3.04 0 0 1 1.136.64c.139.106.198.234.176.384a.442.442 0 0 1-.224.336c-.117.074-.256.053-.416-.064a3.148 3.148 0 0 0-.976-.512 3.16 3.16 0 0 0-1.04-.176c-.618 0-1.098.128-1.44.384-.33.256-.496.602-.496 1.04 0 .33.102.597.304.8.203.202.534.357.992.464l1.392.32c.694.16 1.211.4 1.552.72.342.309.512.73.512 1.264 0 .693-.272 1.237-.816 1.632-.544.394-1.269.592-2.176.592zm8.201 0c-.725 0-1.355-.16-1.888-.48a3.377 3.377 0 0 1-1.248-1.392c-.288-.608-.432-1.323-.432-2.144 0-.811.144-1.515.432-2.112.299-.608.715-1.078 1.248-1.408.533-.331 1.163-.496 1.888-.496.736 0 1.371.165 1.904.496.533.33.944.8 1.232 1.408.299.597.448 1.301.448 2.112 0 .821-.149 1.536-.448 2.144a3.268 3.268 0 0 1-1.232 1.392c-.533.32-1.168.48-1.904.48zm0-.816c.789 0 1.419-.278 1.888-.832.469-.566.704-1.355.704-2.368 0-1.014-.235-1.798-.704-2.352-.469-.555-1.099-.832-1.888-.832-.789 0-1.419.277-1.888.832-.459.554-.688 1.338-.688 2.352 0 1.013.229 1.802.688 2.368.469.554 1.099.832 1.888.832zm6.19.784c-.331 0-.496-.166-.496-.496v-6.96c0-.342.165-.512.496-.512.309 0 .464.17.464.512v.96c.48-1.003 1.296-1.504 2.448-1.504 1.237 0 2.021.538 2.352 1.616a2.63 2.63 0 0 1 1.024-1.184c.459-.288.992-.432 1.6-.432 1.717 0 2.576 1.002 2.576 3.008v4.496c0 .33-.165.496-.496.496-.32 0-.48-.166-.48-.496v-4.416c0-.768-.139-1.334-.416-1.696-.267-.363-.72-.544-1.36-.544-.683 0-1.227.24-1.632.72-.405.469-.608 1.109-.608 1.92v4.016c0 .33-.16.496-.48.496-.331 0-.496-.166-.496-.496v-4.416c0-.768-.139-1.334-.416-1.696-.267-.363-.715-.544-1.344-.544-.693 0-1.243.24-1.648.72-.405.469-.608 1.109-.608 1.92v4.016c0 .33-.16.496-.48.496zm19.578.032c-.48 0-.96-.064-1.44-.192a4.15 4.15 0 0 1-1.344-.656c-.138-.086-.202-.203-.192-.352a.49.49 0 0 1 .176-.368c.118-.086.262-.075.432.032a4.2 4.2 0 0 0 1.216.576c.395.106.79.16 1.184.16.662 0 1.158-.118 1.488-.352.342-.246.512-.582.512-1.008 0-.331-.112-.592-.336-.784-.224-.192-.576-.347-1.056-.464l-1.392-.32c-1.312-.299-1.968-.976-1.968-2.032 0-.683.267-1.232.8-1.648.534-.416 1.238-.624 2.112-.624.459 0 .902.069 1.328.208a3.04 3.04 0 0 1 1.136.64c.139.106.198.234.176.384a.442.442 0 0 1-.224.336c-.117.074-.256.053-.416-.064a3.148 3.148 0 0 0-.976-.512 3.16 3.16 0 0 0-1.04-.176c-.618 0-1.098.128-1.44.384-.33.256-.496.602-.496 1.04 0 .33.102.597.304.8.203.202.534.357.992.464l1.392.32c.694.16 1.211.4 1.552.72.342.309.512.73.512 1.264 0 .693-.272 1.237-.816 1.632-.544.394-1.269.592-2.176.592zm8.201 0c-.726 0-1.355-.16-1.888-.48a3.363 3.363 0 0 1-1.248-1.392c-.288-.608-.432-1.323-.432-2.144 0-.811.144-1.515.432-2.112.298-.608.714-1.078 1.248-1.408.533-.331 1.162-.496 1.888-.496.736 0 1.37.165 1.904.496.533.33.944.8 1.232 1.408.298.597.448 1.301.448 2.112 0 .821-.15 1.536-.448 2.144a3.268 3.268 0 0 1-1.232 1.392c-.534.32-1.168.48-1.904.48zm0-.816c.789 0 1.418-.278 1.888-.832.469-.566.704-1.355.704-2.368 0-1.014-.235-1.798-.704-2.352-.47-.555-1.099-.832-1.888-.832-.79 0-1.419.277-1.888.832-.459.554-.688 1.338-.688 2.352 0 1.013.229 1.802.688 2.368.469.554 1.098.832 1.888.832zm1.344-9.104c-.427 0-.64-.208-.64-.624 0-.427.213-.64.64-.64.426 0 .64.213.64.64 0 .416-.214.624-.64.624zm-2.672 0c-.438 0-.656-.208-.656-.624 0-.427.218-.64.656-.64.416 0 .624.213.624.64 0 .416-.208.624-.624.624zm7.486 9.888c-.331 0-.496-.166-.496-.496v-10.48c0-.331.165-.496.496-.496.32 0 .48.165.48.496v6.64h.032l3.584-3.28c.117-.107.224-.192.32-.256a.62.62 0 0 1 .352-.096c.192 0 .32.08.384.24.064.149.016.304-.144.464l-3.456 3.152 3.792 3.376c.181.17.234.336.16.496-.064.16-.187.24-.368.24a.62.62 0 0 1-.352-.096 1.978 1.978 0 0 1-.352-.272l-3.92-3.456h-.032v3.328c0 .33-.16.496-.48.496zm10.411.032c-1.195 0-2.139-.352-2.832-1.056-.683-.715-1.024-1.691-1.024-2.928 0-.8.155-1.504.464-2.112a3.525 3.525 0 0 1 1.28-1.424c.555-.342 1.189-.512 1.904-.512 1.035 0 1.84.336 2.416 1.008.576.672.864 1.594.864 2.768 0 .298-.149.448-.448.448h-5.52c.032.96.293 1.701.784 2.224.501.512 1.195.768 2.08.768.395 0 .773-.048 1.136-.144a3.33 3.33 0 0 0 1.088-.56c.192-.128.357-.155.496-.08a.37.37 0 0 1 .224.336c.021.149-.059.288-.24.416-.341.277-.757.49-1.248.64a5.14 5.14 0 0 1-1.424.208zm-.192-7.248c-.811 0-1.445.256-1.904.768-.448.501-.709 1.152-.784 1.952h5.072c-.021-.854-.235-1.52-.64-2s-.987-.72-1.744-.72zm5.75 7.216c-.331 0-.496-.166-.496-.496v-6.96c0-.342.165-.512.496-.512.309 0 .464.17.464.512v1.008a2.53 2.53 0 0 1 1.04-1.152c.469-.267 1.008-.406 1.616-.416a.452.452 0 0 1 .32.08c.085.064.128.165.128.304.01.298-.144.464-.464.496l-.224.016c-.758.064-1.344.314-1.76.752-.416.426-.624 1.002-.624 1.728v4.144c0 .33-.166.496-.496.496zm-157.61 22c-.33 0-.496-.166-.496-.496v-10.48c0-.331.166-.496.496-.496.32 0 .48.165.48.496v4.464a2.62 2.62 0 0 1 1.104-1.104 3.313 3.313 0 0 1 1.584-.384c1.846 0 2.768 1.002 2.768 3.008v4.496c0 .33-.16.496-.48.496-.33 0-.496-.166-.496-.496v-4.416c0-.768-.154-1.334-.464-1.696-.31-.363-.8-.544-1.472-.544-.768 0-1.386.24-1.856.72-.459.469-.688 1.104-.688 1.904v4.032c0 .33-.16.496-.48.496zm10.857.032c-.522 0-.992-.102-1.408-.304a2.565 2.565 0 0 1-.976-.832 2.088 2.088 0 0 1-.352-1.184c0-.576.144-1.024.432-1.344.288-.331.774-.566 1.456-.704.683-.139 1.622-.208 2.816-.208h.496v-.576c0-.715-.144-1.232-.432-1.552-.288-.331-.746-.496-1.376-.496-.405 0-.8.053-1.184.16a5.357 5.357 0 0 0-1.2.512c-.192.106-.346.112-.464.016a.543.543 0 0 1-.16-.4c.011-.171.102-.299.272-.384.438-.246.891-.427 1.36-.544.47-.128.923-.192 1.36-.192.939 0 1.632.24 2.08.72.459.48.688 1.216.688 2.208v4.576c0 .33-.149.496-.448.496-.32 0-.48-.166-.48-.496v-.992a2.44 2.44 0 0 1-.976 1.12c-.426.266-.928.4-1.504.4zm.128-.784c.459 0 .859-.107 1.2-.32a2.37 2.37 0 0 0 .832-.912 2.77 2.77 0 0 0 .304-1.312v-.528h-.48c-.96 0-1.712.042-2.256.128-.533.085-.906.234-1.12.448-.213.213-.32.506-.32.88 0 .48.166.869.496 1.168.331.298.779.448 1.344.448zm6.328.752c-.331 0-.496-.166-.496-.496v-6.96c0-.342.165-.512.496-.512.309 0 .464.17.464.512v.992a2.568 2.568 0 0 1 1.104-1.152 3.346 3.346 0 0 1 1.6-.384c1.845 0 2.768 1.002 2.768 3.008v4.496c0 .33-.16.496-.48.496-.331 0-.496-.166-.496-.496v-4.416c0-.768-.155-1.334-.464-1.696-.31-.363-.8-.544-1.472-.544-.768 0-1.387.24-1.856.72-.459.469-.688 1.104-.688 1.904v4.032c0 .33-.16.496-.48.496zm11.417.032c-.704 0-1.312-.16-1.824-.48-.512-.331-.912-.795-1.2-1.392-.277-.608-.416-1.323-.416-2.144 0-1.227.31-2.203.928-2.928.619-.726 1.456-1.088 2.512-1.088.619 0 1.163.144 1.632.432.48.277.837.661 1.072 1.152v-4.56c0-.331.16-.496.48-.496.33 0 .496.165.496.496v10.48c0 .33-.16.496-.48.496-.33 0-.496-.166-.496-.496v-1.056a2.7 2.7 0 0 1-1.072 1.168c-.47.277-1.014.416-1.632.416zm.128-.816c.79 0 1.419-.278 1.888-.832.47-.566.704-1.355.704-2.368 0-1.014-.235-1.798-.704-2.352-.47-.555-1.099-.832-1.888-.832-.79 0-1.419.277-1.888.832-.459.554-.688 1.338-.688 2.352 0 1.013.23 1.802.688 2.368.47.554 1.099.832 1.888.832zm8.355.816c-.715 0-1.27-.219-1.664-.656-.384-.448-.576-1.088-.576-1.92v-8.432c0-.331.165-.496.496-.496.32 0 .48.165.48.496v8.32c0 1.226.48 1.84 1.44 1.84.096 0 .181-.006.256-.016a1.88 1.88 0 0 1 .24-.016c.096-.011.165.01.208.064.053.042.08.138.08.288 0 .277-.16.442-.48.496a.882.882 0 0 1-.24.032h-.24zm5.62 0c-1.194 0-2.138-.352-2.832-1.056-.682-.715-1.024-1.691-1.024-2.928 0-.8.155-1.504.464-2.112a3.527 3.527 0 0 1 1.28-1.424c.555-.342 1.19-.512 1.904-.512 1.035 0 1.84.336 2.416 1.008.576.672.864 1.594.864 2.768 0 .298-.149.448-.448.448h-5.52c.032.96.294 1.701.784 2.224.502.512 1.195.768 2.08.768.395 0 .774-.048 1.136-.144a3.328 3.328 0 0 0 1.088-.56c.192-.128.358-.155.496-.08a.37.37 0 0 1 .224.336c.022.149-.058.288-.24.416-.341.277-.757.49-1.248.64-.48.138-.954.208-1.424.208zm-.192-7.248c-.81 0-1.445.256-1.904.768-.448.501-.709 1.152-.784 1.952h5.072c-.021-.854-.234-1.52-.64-2-.405-.48-.986-.72-1.744-.72zm8.214 7.248c-.704 0-1.312-.16-1.824-.48-.512-.331-.912-.795-1.2-1.392-.278-.608-.416-1.323-.416-2.144 0-1.227.31-2.203.928-2.928.618-.726 1.456-1.088 2.512-1.088.618 0 1.162.144 1.632.432.48.277.837.661 1.072 1.152v-4.56c0-.331.16-.496.48-.496.33 0 .496.165.496.496v10.48c0 .33-.16.496-.48.496-.33 0-.496-.166-.496-.496v-1.056a2.7 2.7 0 0 1-1.072 1.168c-.47.277-1.013.416-1.632.416zm.128-.816c.79 0 1.418-.278 1.888-.832.47-.566.704-1.355.704-2.368 0-1.014-.235-1.798-.704-2.352-.47-.555-1.099-.832-1.888-.832-.79 0-1.419.277-1.888.832-.459.554-.688 1.338-.688 2.352 0 1.013.23 1.802.688 2.368.47.554 1.099.832 1.888.832zm6.61.784c-.33 0-.495-.166-.495-.496v-6.96c0-.342.165-.512.496-.512.31 0 .464.17.464.512v.992a2.568 2.568 0 0 1 1.104-1.152 3.346 3.346 0 0 1 1.6-.384c1.845 0 2.768 1.002 2.768 3.008v4.496c0 .33-.16.496-.48.496-.33 0-.496-.166-.496-.496v-4.416c0-.768-.155-1.334-.464-1.696-.31-.363-.8-.544-1.472-.544-.768 0-1.387.24-1.856.72-.459.469-.688 1.104-.688 1.904v4.032c0 .33-.16.496-.48.496zm8.954-9.856c-.47 0-.704-.224-.704-.672 0-.438.235-.656.704-.656s.704.218.704.656c0 .448-.235.672-.704.672zm0 9.824c-.33 0-.496-.176-.496-.528v-6.848c0-.342.165-.512.496-.512.32 0 .48.17.48.512v6.848c0 .352-.16.528-.48.528zm3.547.032c-.331 0-.496-.166-.496-.496v-6.96c0-.342.165-.512.496-.512.309 0 .464.17.464.512v.992a2.568 2.568 0 0 1 1.104-1.152 3.345 3.345 0 0 1 1.6-.384c1.845 0 2.768 1.002 2.768 3.008v4.496c0 .33-.16.496-.48.496-.331 0-.496-.166-.496-.496v-4.416c0-.768-.155-1.334-.464-1.696-.309-.363-.8-.544-1.472-.544-.768 0-1.387.24-1.856.72-.459.469-.688 1.104-.688 1.904v4.032c0 .33-.16.496-.48.496zm11.833 2.912a6.331 6.331 0 0 1-1.68-.224 4.262 4.262 0 0 1-1.456-.688c-.149-.096-.213-.219-.192-.368a.561.561 0 0 1 .208-.368c.117-.086.245-.086.384 0 .48.32.928.538 1.344.656.427.117.88.176 1.36.176.779 0 1.371-.214 1.776-.64.405-.427.608-1.046.608-1.856v-1.504a2.543 2.543 0 0 1-1.072 1.2c-.48.288-1.029.432-1.648.432-.725 0-1.349-.16-1.872-.48a3.383 3.383 0 0 1-1.2-1.36c-.277-.587-.416-1.264-.416-2.032s.139-1.44.416-2.016a3.268 3.268 0 0 1 1.2-1.344c.523-.331 1.147-.496 1.872-.496.619 0 1.163.144 1.632.432.48.277.837.666 1.072 1.168v-1.056c0-.342.16-.512.48-.512.32 0 .48.17.48.512v6.912c0 2.304-1.099 3.456-3.296 3.456zm-.256-4.016c.8 0 1.435-.272 1.904-.816.469-.555.704-1.296.704-2.224 0-.928-.235-1.664-.704-2.208-.469-.544-1.104-.816-1.904-.816-.811 0-1.451.272-1.92.816-.459.544-.688 1.28-.688 2.208 0 .928.229 1.669.688 2.224.469.544 1.109.816 1.92.816zm13.249 1.136c-.725 0-1.354-.16-1.888-.48a3.377 3.377 0 0 1-1.248-1.392c-.288-.608-.432-1.323-.432-2.144 0-.811.144-1.515.432-2.112.299-.608.715-1.078 1.248-1.408.534-.331 1.163-.496 1.888-.496.736 0 1.371.165 1.904.496.534.33.944.8 1.232 1.408.299.597.448 1.301.448 2.112 0 .821-.149 1.536-.448 2.144a3.262 3.262 0 0 1-1.232 1.392c-.533.32-1.168.48-1.904.48zm0-.816c.79 0 1.419-.278 1.888-.832.47-.566.704-1.355.704-2.368 0-1.014-.234-1.798-.704-2.352-.469-.555-1.098-.832-1.888-.832-.789 0-1.418.277-1.888.832-.458.554-.688 1.338-.688 2.352 0 1.013.23 1.802.688 2.368.47.554 1.099.832 1.888.832zm8.83.816c-.757 0-1.408-.166-1.952-.496a3.425 3.425 0 0 1-1.264-1.424c-.288-.619-.432-1.334-.432-2.144 0-1.227.32-2.192.96-2.896.651-.715 1.547-1.072 2.688-1.072.395 0 .8.069 1.216.208.427.138.806.357 1.136.656.139.106.192.234.16.384a.482.482 0 0 1-.256.336c-.128.064-.272.032-.432-.096a2.463 2.463 0 0 0-.912-.496 2.966 2.966 0 0 0-.88-.144c-.864 0-1.53.272-2 .816-.458.544-.688 1.317-.688 2.32 0 1.002.23 1.792.688 2.368.47.565 1.136.848 2 .848.278 0 .571-.043.88-.128.31-.096.614-.267.912-.512.171-.128.315-.155.432-.08.128.064.203.17.224.32.032.149-.016.277-.144.384-.33.298-.704.517-1.12.656a4.122 4.122 0 0 1-1.216.192zm4.672-.032c-.331 0-.496-.166-.496-.496v-10.48c0-.331.165-.496.496-.496.32 0 .48.165.48.496v4.464a2.624 2.624 0 0 1 1.104-1.104 3.313 3.313 0 0 1 1.584-.384c1.845 0 2.768 1.002 2.768 3.008v4.496c0 .33-.16.496-.48.496-.331 0-.496-.166-.496-.496v-4.416c0-.768-.155-1.334-.464-1.696-.309-.363-.8-.544-1.472-.544-.768 0-1.387.24-1.856.72-.459.469-.688 1.104-.688 1.904v4.032c0 .33-.16.496-.48.496zm13.352 0c-.33 0-.496-.166-.496-.496v-6.576h-1.136c-.298 0-.448-.134-.448-.4 0-.256.15-.384.448-.384h1.136v-.384c0-1.952.934-3.008 2.8-3.168l.432-.032c.203-.011.331.048.384.176.064.117.07.245.016.384a.327.327 0 0 1-.304.224l-.448.048c-.661.053-1.146.272-1.456.656-.298.373-.448.917-.448 1.632v.464h1.904c.299 0 .448.128.448.384 0 .266-.149.4-.448.4h-1.904v6.576c0 .33-.16.496-.48.496zm7.387.032c-1.194 0-2.138-.352-2.832-1.056-.682-.715-1.024-1.691-1.024-2.928 0-.8.155-1.504.464-2.112a3.532 3.532 0 0 1 1.28-1.424c.555-.342 1.19-.512 1.904-.512 1.035 0 1.84.336 2.416 1.008.576.672.864 1.594.864 2.768 0 .298-.149.448-.448.448h-5.52c.032.96.294 1.701.784 2.224.502.512 1.195.768 2.08.768.395 0 .774-.048 1.136-.144a3.32 3.32 0 0 0 1.088-.56c.192-.128.358-.155.496-.08a.369.369 0 0 1 .224.336c.022.149-.058.288-.24.416-.341.277-.757.49-1.248.64-.48.138-.954.208-1.424.208zm-.192-7.248c-.81 0-1.445.256-1.904.768-.448.501-.709 1.152-.784 1.952h5.072c-.021-.854-.234-1.52-.64-2-.405-.48-.986-.72-1.744-.72zm8.63 7.248c-1.195 0-2.139-.352-2.832-1.056-.683-.715-1.024-1.691-1.024-2.928 0-.8.155-1.504.464-2.112a3.525 3.525 0 0 1 1.28-1.424c.555-.342 1.189-.512 1.904-.512 1.035 0 1.84.336 2.416 1.008.576.672.864 1.594.864 2.768 0 .298-.149.448-.448.448h-5.52c.032.96.293 1.701.784 2.224.501.512 1.195.768 2.08.768.395 0 .773-.048 1.136-.144a3.33 3.33 0 0 0 1.088-.56c.192-.128.357-.155.496-.08a.37.37 0 0 1 .224.336c.021.149-.059.288-.24.416-.341.277-.757.49-1.248.64a5.14 5.14 0 0 1-1.424.208zm-.192-7.248c-.811 0-1.445.256-1.904.768-.448.501-.709 1.152-.784 1.952h5.072c-.021-.854-.235-1.52-.64-2s-.987-.72-1.744-.72zm8.213 7.248c-.704 0-1.312-.16-1.824-.48-.512-.331-.912-.795-1.2-1.392-.277-.608-.416-1.323-.416-2.144 0-1.227.31-2.203.928-2.928.619-.726 1.456-1.088 2.512-1.088.619 0 1.163.144 1.632.432.48.277.838.661 1.072 1.152v-4.56c0-.331.16-.496.48-.496.331 0 .496.165.496.496v10.48c0 .33-.16.496-.48.496-.33 0-.496-.166-.496-.496v-1.056c-.234.49-.592.88-1.072 1.168-.469.277-1.013.416-1.632.416zm.128-.816c.79 0 1.419-.278 1.888-.832.47-.566.704-1.355.704-2.368 0-1.014-.234-1.798-.704-2.352-.469-.555-1.098-.832-1.888-.832-.789 0-1.418.277-1.888.832-.458.554-.688 1.338-.688 2.352 0 1.013.23 1.802.688 2.368.47.554 1.099.832 1.888.832zm9.812.816c-.63 0-1.184-.139-1.664-.416a2.72 2.72 0 0 1-1.056-1.168v1.056c0 .33-.16.496-.48.496-.331 0-.496-.166-.496-.496v-10.48c0-.331.165-.496.496-.496.32 0 .48.165.48.496v4.56a2.615 2.615 0 0 1 1.056-1.152c.48-.288 1.034-.432 1.664-.432 1.045 0 1.877.362 2.496 1.088.629.725.944 1.701.944 2.928 0 .821-.144 1.536-.432 2.144a3.207 3.207 0 0 1-1.2 1.392c-.512.32-1.115.48-1.808.48zm-.144-.816c.789 0 1.418-.278 1.888-.832.469-.566.704-1.355.704-2.368 0-1.014-.235-1.798-.704-2.352-.47-.555-1.099-.832-1.888-.832-.79 0-1.419.277-1.888.832-.47.554-.704 1.338-.704 2.352 0 1.013.234 1.802.704 2.368.469.554 1.098.832 1.888.832zm8.051.816c-.523 0-.992-.102-1.408-.304a2.557 2.557 0 0 1-.976-.832 2.085 2.085 0 0 1-.352-1.184c0-.576.144-1.024.432-1.344.288-.331.773-.566 1.456-.704.682-.139 1.621-.208 2.816-.208h.496v-.576c0-.715-.144-1.232-.432-1.552-.288-.331-.747-.496-1.376-.496-.406 0-.8.053-1.184.16a5.357 5.357 0 0 0-1.2.512c-.192.106-.347.112-.464.016a.542.542 0 0 1-.16-.4c.01-.171.101-.299.272-.384.437-.246.89-.427 1.36-.544a5.156 5.156 0 0 1 1.36-.192c.938 0 1.632.24 2.08.72.458.48.688 1.216.688 2.208v4.576c0 .33-.15.496-.448.496-.32 0-.48-.166-.48-.496v-.992c-.214.48-.539.853-.976 1.12-.427.266-.928.4-1.504.4zm.128-.784c.458 0 .858-.107 1.2-.32.352-.224.629-.528.832-.912.202-.384.304-.822.304-1.312v-.528h-.48c-.96 0-1.712.042-2.256.128-.534.085-.907.234-1.12.448-.214.213-.32.506-.32.88 0 .48.165.869.496 1.168.33.298.778.448 1.344.448zm8.999.784c-.757 0-1.408-.166-1.952-.496a3.425 3.425 0 0 1-1.264-1.424c-.288-.619-.432-1.334-.432-2.144 0-1.227.32-2.192.96-2.896.651-.715 1.547-1.072 2.688-1.072.395 0 .8.069 1.216.208.427.138.805.357 1.136.656.139.106.192.234.16.384a.482.482 0 0 1-.256.336c-.128.064-.272.032-.432-.096a2.479 2.479 0 0 0-.912-.496 2.971 2.971 0 0 0-.88-.144c-.864 0-1.531.272-2 .816-.459.544-.688 1.317-.688 2.32 0 1.002.229 1.792.688 2.368.469.565 1.136.848 2 .848.277 0 .571-.043.88-.128.309-.096.613-.267.912-.512.171-.128.315-.155.432-.08.128.064.203.17.224.32.032.149-.016.277-.144.384a3.15 3.15 0 0 1-1.12.656 4.122 4.122 0 0 1-1.216.192zm4.672-.032c-.331 0-.496-.166-.496-.496v-10.48c0-.331.165-.496.496-.496.32 0 .48.165.48.496v6.64h.032l3.584-3.28c.117-.107.224-.192.32-.256a.62.62 0 0 1 .352-.096c.192 0 .32.08.384.24.064.149.016.304-.144.464l-3.456 3.152 3.792 3.376c.181.17.234.336.16.496-.064.16-.187.24-.368.24a.62.62 0 0 1-.352-.096 1.978 1.978 0 0 1-.352-.272l-3.92-3.456h-.032v3.328c0 .33-.16.496-.48.496zM63.68 237.887c-.523 0-.992-.102-1.408-.304a2.565 2.565 0 0 1-.976-.832 2.088 2.088 0 0 1-.352-1.184c0-.576.144-1.024.432-1.344.288-.331.773-.566 1.456-.704.683-.139 1.621-.208 2.816-.208h.496v-.576c0-.715-.144-1.232-.432-1.552-.288-.331-.747-.496-1.376-.496-.405 0-.8.053-1.184.16a5.357 5.357 0 0 0-1.2.512c-.192.106-.347.112-.464.016a.543.543 0 0 1-.16-.4c.01-.171.101-.299.272-.384.437-.246.89-.427 1.36-.544.47-.128.923-.192 1.36-.192.939 0 1.632.24 2.08.72.459.48.688 1.216.688 2.208v4.576c0 .33-.15.496-.448.496-.32 0-.48-.166-.48-.496v-.992a2.44 2.44 0 0 1-.976 1.12c-.427.266-.928.4-1.504.4zm.128-.784c.459 0 .859-.107 1.2-.32a2.37 2.37 0 0 0 .832-.912 2.77 2.77 0 0 0 .304-1.312v-.528h-.48c-.96 0-1.712.042-2.256.128-.533.085-.907.234-1.12.448-.213.213-.32.506-.32.88 0 .48.165.869.496 1.168.33.298.779.448 1.344.448zm8.553.752c-.31 0-.538-.171-.688-.512l-2.88-6.72c-.085-.192-.09-.363-.016-.512.075-.15.224-.224.448-.224s.39.133.496.4l2.64 6.4 2.672-6.4a.744.744 0 0 1 .192-.304.478.478 0 0 1 .32-.096c.203 0 .33.074.384.224.064.149.059.314-.016.496l-2.88 6.736c-.138.341-.362.512-.672.512zm12.748.032c-1.194 0-2.138-.352-2.832-1.056-.683-.715-1.024-1.691-1.024-2.928 0-.8.155-1.504.464-2.112a3.528 3.528 0 0 1 1.28-1.424c.555-.342 1.19-.512 1.904-.512 1.035 0 1.84.336 2.416 1.008.576.672.864 1.594.864 2.768 0 .298-.15.448-.448.448h-5.52c.032.96.294 1.701.784 2.224.502.512 1.195.768 2.08.768a4.42 4.42 0 0 0 1.136-.144 3.327 3.327 0 0 0 1.088-.56c.192-.128.358-.155.496-.08a.37.37 0 0 1 .224.336c.022.149-.058.288-.24.416-.341.277-.757.49-1.248.64-.48.138-.954.208-1.424.208zm-.192-7.248c-.81 0-1.445.256-1.904.768-.448.501-.71 1.152-.784 1.952h5.072c-.021-.854-.234-1.52-.64-2-.405-.48-.987-.72-1.744-.72zm5.75 7.216c-.331 0-.496-.166-.496-.496v-6.96c0-.342.165-.512.496-.512.309 0 .464.17.464.512v.992a2.568 2.568 0 0 1 1.104-1.152 3.346 3.346 0 0 1 1.6-.384c1.845 0 2.768 1.002 2.768 3.008v4.496c0 .33-.16.496-.48.496-.331 0-.496-.166-.496-.496v-4.416c0-.768-.155-1.334-.464-1.696-.31-.363-.8-.544-1.472-.544-.768 0-1.387.24-1.856.72-.459.469-.688 1.104-.688 1.904v4.032c0 .33-.16.496-.48.496zm12.984 0c-.331 0-.496-.166-.496-.496v-10.48c0-.331.165-.496.496-.496.32 0 .48.165.48.496v6.64h.032l3.584-3.28c.117-.107.224-.192.32-.256a.62.62 0 0 1 .352-.096c.192 0 .32.08.384.24.064.149.016.304-.144.464l-3.456 3.152 3.792 3.376c.181.17.235.336.16.496-.064.16-.187.24-.368.24a.62.62 0 0 1-.352-.096 2.014 2.014 0 0 1-.352-.272l-3.92-3.456h-.032v3.328c0 .33-.16.496-.48.496zm9.99.032c-1.845 0-2.768-1.003-2.768-3.008v-4.48c0-.342.165-.512.496-.512.32 0 .48.17.48.512v4.432c0 .757.155 1.317.464 1.68.309.362.795.544 1.456.544.715 0 1.296-.24 1.744-.72.459-.48.688-1.12.688-1.92v-4.016c0-.342.165-.512.496-.512.32 0 .48.17.48.512v6.96c0 .33-.155.496-.464.496-.32 0-.48-.166-.48-.496v-.976c-.256.49-.613.864-1.072 1.12a3.01 3.01 0 0 1-1.52.384zm6.604-.032c-.331 0-.496-.166-.496-.496v-6.96c0-.342.165-.512.496-.512.309 0 .464.17.464.512v.992a2.568 2.568 0 0 1 1.104-1.152 3.345 3.345 0 0 1 1.6-.384c1.845 0 2.768 1.002 2.768 3.008v4.496c0 .33-.16.496-.48.496-.331 0-.496-.166-.496-.496v-4.416c0-.768-.155-1.334-.464-1.696-.31-.363-.8-.544-1.472-.544-.768 0-1.387.24-1.856.72-.459.469-.688 1.104-.688 1.904v4.032c0 .33-.16.496-.48.496zm8.953 0c-.331 0-.496-.166-.496-.496v-6.96c0-.342.165-.512.496-.512.309 0 .464.17.464.512v.992a2.568 2.568 0 0 1 1.104-1.152 3.345 3.345 0 0 1 1.6-.384c1.845 0 2.768 1.002 2.768 3.008v4.496c0 .33-.16.496-.48.496-.331 0-.496-.166-.496-.496v-4.416c0-.768-.155-1.334-.464-1.696-.309-.363-.8-.544-1.472-.544-.768 0-1.387.24-1.856.72-.459.469-.688 1.104-.688 1.904v4.032c0 .33-.16.496-.48.496zm8.953-9.856c-.469 0-.704-.224-.704-.672 0-.438.235-.656.704-.656s.704.218.704.656c0 .448-.235.672-.704.672zm0 9.824c-.331 0-.496-.176-.496-.528v-6.848c0-.342.165-.512.496-.512.32 0 .48.17.48.512v6.848c0 .352-.16.528-.48.528zm6.427 2.944a6.331 6.331 0 0 1-1.68-.224 4.262 4.262 0 0 1-1.456-.688c-.149-.096-.213-.219-.192-.368a.561.561 0 0 1 .208-.368c.117-.086.245-.086.384 0 .48.32.928.538 1.344.656.427.117.88.176 1.36.176.779 0 1.371-.214 1.776-.64.405-.427.608-1.046.608-1.856v-1.504a2.543 2.543 0 0 1-1.072 1.2c-.48.288-1.029.432-1.648.432-.725 0-1.349-.16-1.872-.48a3.383 3.383 0 0 1-1.2-1.36c-.277-.587-.416-1.264-.416-2.032s.139-1.44.416-2.016a3.268 3.268 0 0 1 1.2-1.344c.523-.331 1.147-.496 1.872-.496.619 0 1.163.144 1.632.432.48.277.837.666 1.072 1.168v-1.056c0-.342.16-.512.48-.512.32 0 .48.17.48.512v6.912c0 2.304-1.099 3.456-3.296 3.456zm-.256-4.016c.8 0 1.435-.272 1.904-.816.469-.555.704-1.296.704-2.224 0-.928-.235-1.664-.704-2.208-.469-.544-1.104-.816-1.904-.816-.811 0-1.451.272-1.92.816-.459.544-.688 1.28-.688 2.208 0 .928.229 1.669.688 2.224.469.544 1.109.816 1.92.816zm10.657-8.752c-.469 0-.704-.224-.704-.672 0-.438.235-.656.704-.656s.704.218.704.656c0 .448-.235.672-.704.672zm0 9.824c-.331 0-.496-.176-.496-.528v-6.848c0-.342.165-.512.496-.512.32 0 .48.17.48.512v6.848c0 .352-.16.528-.48.528zm3.547.032c-.331 0-.496-.166-.496-.496v-6.96c0-.342.165-.512.496-.512.309 0 .464.17.464.512v.992a2.568 2.568 0 0 1 1.104-1.152 3.345 3.345 0 0 1 1.6-.384c1.845 0 2.768 1.002 2.768 3.008v4.496c0 .33-.16.496-.48.496-.331 0-.496-.166-.496-.496v-4.416c0-.768-.155-1.334-.464-1.696-.309-.363-.8-.544-1.472-.544-.768 0-1.387.24-1.856.72-.459.469-.688 1.104-.688 1.904v4.032c0 .33-.16.496-.48.496zm11.545.032c-.725 0-1.355-.16-1.888-.48a3.377 3.377 0 0 1-1.248-1.392c-.288-.608-.432-1.323-.432-2.144 0-.811.144-1.515.432-2.112.299-.608.715-1.078 1.248-1.408.533-.331 1.163-.496 1.888-.496.736 0 1.371.165 1.904.496.533.33.944.8 1.232 1.408.299.597.448 1.301.448 2.112 0 .821-.149 1.536-.448 2.144a3.268 3.268 0 0 1-1.232 1.392c-.533.32-1.168.48-1.904.48zm0-.816c.789 0 1.419-.278 1.888-.832.469-.566.704-1.355.704-2.368 0-1.014-.235-1.798-.704-2.352-.469-.555-1.099-.832-1.888-.832-.789 0-1.419.277-1.888.832-.459.554-.688 1.338-.688 2.352 0 1.013.229 1.802.688 2.368.469.554 1.099.832 1.888.832zm6.19.784c-.331 0-.496-.166-.496-.496v-6.96c0-.342.165-.512.496-.512.309 0 .464.17.464.512v.96c.48-1.003 1.296-1.504 2.448-1.504 1.237 0 2.021.538 2.352 1.616a2.63 2.63 0 0 1 1.024-1.184c.459-.288.992-.432 1.6-.432 1.717 0 2.576 1.002 2.576 3.008v4.496c0 .33-.165.496-.496.496-.32 0-.48-.166-.48-.496v-4.416c0-.768-.139-1.334-.416-1.696-.267-.363-.72-.544-1.36-.544-.683 0-1.227.24-1.632.72-.405.469-.608 1.109-.608 1.92v4.016c0 .33-.16.496-.48.496-.331 0-.496-.166-.496-.496v-4.416c0-.768-.139-1.334-.416-1.696-.267-.363-.715-.544-1.344-.544-.693 0-1.243.24-1.648.72-.405.469-.608 1.109-.608 1.92v4.016c0 .33-.16.496-.48.496zm-85.652 22.032c-.63 0-1.184-.139-1.664-.416a2.728 2.728 0 0 1-1.056-1.168v1.056c0 .33-.16.496-.48.496-.33 0-.496-.166-.496-.496v-10.48c0-.331.165-.496.496-.496.32 0 .48.165.48.496v4.56a2.623 2.623 0 0 1 1.056-1.152c.48-.288 1.035-.432 1.664-.432 1.045 0 1.877.362 2.496 1.088.63.725.944 1.701.944 2.928 0 .821-.144 1.536-.432 2.144a3.198 3.198 0 0 1-1.2 1.392c-.512.32-1.115.48-1.808.48zm-.144-.816c.79 0 1.418-.278 1.888-.832.47-.566.704-1.355.704-2.368 0-1.014-.235-1.798-.704-2.352-.47-.555-1.099-.832-1.888-.832-.79 0-1.419.277-1.888.832-.47.554-.704 1.338-.704 2.352 0 1.013.234 1.802.704 2.368.47.554 1.099.832 1.888.832zm6.147.784c-.33 0-.496-.166-.496-.496v-6.96c0-.342.165-.512.496-.512.31 0 .464.17.464.512v1.008a2.536 2.536 0 0 1 1.04-1.152c.47-.267 1.008-.406 1.616-.416a.451.451 0 0 1 .32.08c.085.064.128.165.128.304.011.298-.144.464-.464.496l-.224.016c-.757.064-1.344.314-1.76.752-.416.426-.624 1.002-.624 1.728v4.144c0 .33-.165.496-.496.496zm7.295.032c-.523 0-.992-.102-1.408-.304a2.557 2.557 0 0 1-.976-.832 2.085 2.085 0 0 1-.352-1.184c0-.576.144-1.024.432-1.344.288-.331.773-.566 1.456-.704.682-.139 1.621-.208 2.816-.208h.496v-.576c0-.715-.144-1.232-.432-1.552-.288-.331-.747-.496-1.376-.496-.406 0-.8.053-1.184.16a5.357 5.357 0 0 0-1.2.512c-.192.106-.347.112-.464.016a.542.542 0 0 1-.16-.4c.01-.171.101-.299.272-.384.437-.246.89-.427 1.36-.544a5.156 5.156 0 0 1 1.36-.192c.938 0 1.632.24 2.08.72.458.48.688 1.216.688 2.208v4.576c0 .33-.15.496-.448.496-.32 0-.48-.166-.48-.496v-.992c-.214.48-.539.853-.976 1.12-.427.266-.928.4-1.504.4zm.128-.784c.458 0 .858-.107 1.2-.32.352-.224.629-.528.832-.912.202-.384.304-.822.304-1.312v-.528h-.48c-.96 0-1.712.042-2.256.128-.534.085-.907.234-1.12.448-.214.213-.32.506-.32.88 0 .48.165.869.496 1.168.33.298.778.448 1.344.448zm6.327.752c-.331 0-.496-.166-.496-.496v-6.96c0-.342.165-.512.496-.512.309 0 .464.17.464.512v.992a2.568 2.568 0 0 1 1.104-1.152 3.345 3.345 0 0 1 1.6-.384c1.845 0 2.768 1.002 2.768 3.008v4.496c0 .33-.16.496-.48.496-.331 0-.496-.166-.496-.496v-4.416c0-.768-.155-1.334-.464-1.696-.309-.363-.8-.544-1.472-.544-.768 0-1.387.24-1.856.72-.459.469-.688 1.104-.688 1.904v4.032c0 .33-.16.496-.48.496zm10.985.032c-.48 0-.96-.064-1.44-.192a4.15 4.15 0 0 1-1.344-.656c-.139-.086-.203-.203-.192-.352a.488.488 0 0 1 .176-.368c.117-.086.261-.075.432.032.416.277.821.469 1.216.576.395.106.789.16 1.184.16.661 0 1.157-.118 1.488-.352.341-.246.512-.582.512-1.008 0-.331-.112-.592-.336-.784-.224-.192-.576-.347-1.056-.464l-1.392-.32c-1.312-.299-1.968-.976-1.968-2.032 0-.683.267-1.232.8-1.648.533-.416 1.237-.624 2.112-.624.459 0 .901.069 1.328.208.437.138.816.352 1.136.64.139.106.197.234.176.384a.442.442 0 0 1-.224.336c-.117.074-.256.053-.416-.064a3.16 3.16 0 0 0-.976-.512 3.16 3.16 0 0 0-1.04-.176c-.619 0-1.099.128-1.44.384-.331.256-.496.602-.496 1.04 0 .33.101.597.304.8.203.202.533.357.992.464l1.392.32c.693.16 1.211.4 1.552.72.341.309.512.73.512 1.264 0 .693-.272 1.237-.816 1.632-.544.394-1.269.592-2.176.592zm8.281 0c-.758 0-1.408-.166-1.952-.496a3.419 3.419 0 0 1-1.264-1.424c-.288-.619-.432-1.334-.432-2.144 0-1.227.32-2.192.96-2.896.65-.715 1.546-1.072 2.688-1.072.394 0 .8.069 1.216.208.426.138.805.357 1.136.656.138.106.192.234.16.384a.485.485 0 0 1-.256.336c-.128.064-.272.032-.432-.096a2.479 2.479 0 0 0-.912-.496 2.976 2.976 0 0 0-.88-.144c-.864 0-1.531.272-2 .816-.459.544-.688 1.317-.688 2.32 0 1.002.229 1.792.688 2.368.469.565 1.136.848 2 .848.277 0 .57-.043.88-.128.309-.096.613-.267.912-.512.17-.128.314-.155.432-.08.128.064.202.17.224.32.032.149-.016.277-.144.384a3.15 3.15 0 0 1-1.12.656 4.127 4.127 0 0 1-1.216.192zm4.671-.032c-.33 0-.496-.166-.496-.496v-10.48c0-.331.166-.496.496-.496.32 0 .48.165.48.496v4.464a2.624 2.624 0 0 1 1.104-1.104 3.313 3.313 0 0 1 1.584-.384c1.846 0 2.768 1.002 2.768 3.008v4.496c0 .33-.16.496-.48.496-.33 0-.496-.166-.496-.496v-4.416c0-.768-.154-1.334-.464-1.696-.309-.363-.8-.544-1.472-.544-.768 0-1.386.24-1.856.72-.458.469-.688 1.104-.688 1.904v4.032c0 .33-.16.496-.48.496zm11.834.032c-1.195 0-2.139-.352-2.832-1.056-.683-.715-1.024-1.691-1.024-2.928 0-.8.154-1.504.464-2.112a3.525 3.525 0 0 1 1.28-1.424c.554-.342 1.189-.512 1.904-.512 1.034 0 1.84.336 2.416 1.008.576.672.864 1.594.864 2.768 0 .298-.15.448-.448.448h-5.52c.032.96.293 1.701.784 2.224.501.512 1.194.768 2.08.768.394 0 .773-.048 1.136-.144a3.33 3.33 0 0 0 1.088-.56c.192-.128.357-.155.496-.08a.372.372 0 0 1 .224.336c.021.149-.059.288-.24.416a3.66 3.66 0 0 1-1.248.64 5.14 5.14 0 0 1-1.424.208zm-.192-7.248c-.811 0-1.446.256-1.904.768-.448.501-.71 1.152-.784 1.952h5.072c-.022-.854-.235-1.52-.64-2-.406-.48-.987-.72-1.744-.72zm5.749 7.216c-.331 0-.496-.166-.496-.496v-6.96c0-.342.165-.512.496-.512.309 0 .464.17.464.512v.992a2.568 2.568 0 0 1 1.104-1.152 3.345 3.345 0 0 1 1.6-.384c1.845 0 2.768 1.002 2.768 3.008v4.496c0 .33-.16.496-.48.496-.331 0-.496-.166-.496-.496v-4.416c0-.768-.155-1.334-.464-1.696-.309-.363-.8-.544-1.472-.544-.768 0-1.387.24-1.856.72-.459.469-.688 1.104-.688 1.904v4.032c0 .33-.16.496-.48.496zm8.937-.048a.72.72 0 0 1-.528-.208.72.72 0 0 1-.208-.528c0-.214.07-.39.208-.528a.715.715 0 0 1 .528-.208c.224 0 .4.069.528.208a.712.712 0 0 1 .208.528.715.715 0 0 1-.208.528c-.128.138-.304.208-.528.208zM85.7 164.18c-.533 0-.946-.147-1.24-.44-.28-.293-.42-.707-.42-1.24v-11.1c0-.547.154-.96.46-1.24.307-.293.74-.44 1.3-.44.454 0 .82.093 1.1.28.28.173.534.467.76.88l3.94 7.1 3.94-7.1c.24-.413.494-.707.76-.88.28-.187.654-.28 1.12-.28.52 0 .927.147 1.22.44.294.28.44.693.44 1.24v11.1c0 .533-.14.947-.42 1.24-.28.293-.693.44-1.24.44-.533 0-.946-.147-1.24-.44-.28-.293-.42-.707-.42-1.24v-6.16l-2.8 4.88c-.186.293-.386.513-.6.66-.2.147-.473.22-.82.22-.333 0-.606-.073-.82-.22-.213-.147-.406-.367-.58-.66l-2.78-4.8v6.08c0 .533-.14.947-.42 1.24-.28.293-.693.44-1.24.44zm17.896-.18c-1.28 0-1.92-.633-1.92-1.9v-10.3c0-1.267.64-1.9 1.92-1.9h6.78c.96 0 1.44.467 1.44 1.4 0 .96-.48 1.44-1.44 1.44h-5.18v2.68h4.74c.96 0 1.44.473 1.44 1.42s-.48 1.42-1.44 1.42h-4.74v2.9h5.18c.96 0 1.44.473 1.44 1.42s-.48 1.42-1.44 1.42h-6.78zm12.086.18c-1.147 0-1.72-.58-1.72-1.74v-10.9c0-.587.146-1.033.44-1.34.293-.32.68-.48 1.16-.48.426 0 .753.08.98.24.24.16.513.427.82.8l5.78 7.22v-6.54c0-1.147.566-1.72 1.7-1.72.56 0 .98.153 1.26.46.293.293.44.713.44 1.26v11.08c0 .507-.134.913-.4 1.22-.267.293-.627.44-1.08.44-.454 0-.814-.08-1.08-.24-.254-.16-.527-.427-.82-.8l-5.78-7.22v6.52c0 1.16-.567 1.74-1.7 1.74zm18.596 0c-.587 0-1.04-.16-1.36-.48-.32-.32-.48-.78-.48-1.38v-9.42h-3.14c-1.013 0-1.52-.5-1.52-1.5s.507-1.5 1.52-1.5h9.96c1.013 0 1.52.5 1.52 1.5s-.507 1.5-1.52 1.5h-3.14v9.42c0 .6-.16 1.06-.48 1.38-.307.32-.76.48-1.36.48zm9.631-.18c-1.28 0-1.92-.633-1.92-1.9v-10.3c0-1.267.64-1.9 1.92-1.9h6.78c.96 0 1.44.467 1.44 1.4 0 .96-.48 1.44-1.44 1.44h-5.18v2.68h4.74c.96 0 1.44.473 1.44 1.42s-.48 1.42-1.44 1.42h-4.74v2.9h5.18c.96 0 1.44.473 1.44 1.42s-.48 1.42-1.44 1.42h-6.78zm12.285 0c-1.28 0-1.92-.633-1.92-1.9v-10.3c0-1.267.64-1.9 1.92-1.9h6.78c.96 0 1.44.467 1.44 1.4 0 .96-.48 1.44-1.44 1.44h-5.18v2.68h4.74c.96 0 1.44.473 1.44 1.42s-.48 1.42-1.44 1.42h-4.74v2.9h5.18c.96 0 1.44.473 1.44 1.42s-.48 1.42-1.44 1.42h-6.78z" fill="#000"/>
    <g filter="url(#t4gh9xuu0b)">
        <path d="M117.266 52.127c3.166-4.875 10.302-4.875 13.468 0a8.031 8.031 0 0 0 9.082 3.306c5.559-1.7 11.026 2.888 10.318 8.658a8.03 8.03 0 0 0 4.832 8.37c5.351 2.27 6.59 9.299 2.339 13.264a8.031 8.031 0 0 0-1.678 9.517c2.639 5.18-.93 11.36-6.735 11.665a8.029 8.029 0 0 0-7.403 6.212c-1.308 5.664-8.014 8.105-12.657 4.607a8.028 8.028 0 0 0-9.664 0c-4.643 3.498-11.349 1.057-12.657-4.607a8.03 8.03 0 0 0-7.403-6.212c-5.805-.305-9.374-6.485-6.735-11.665a8.03 8.03 0 0 0-1.678-9.517c-4.251-3.965-3.012-10.993 2.339-13.265a8.03 8.03 0 0 0 4.832-8.37c-.708-5.77 4.759-10.356 10.318-8.657a8.031 8.031 0 0 0 9.082-3.306z" fill="#758EE7"/>
        <path d="M134.272 71.199c.672 0 1.212.216 1.62.648.408.408.612.96.612 1.656v21.312c0 .672-.192 1.2-.576 1.584-.384.384-.888.576-1.512.576s-1.116-.192-1.476-.576c-.36-.384-.54-.912-.54-1.584V79.983l-6.12 11.592c-.288.528-.6.924-.936 1.188a1.99 1.99 0 0 1-1.188.36 1.99 1.99 0 0 1-1.188-.36c-.336-.24-.648-.636-.936-1.188l-6.156-11.412v14.652c0 .648-.192 1.176-.576 1.584-.36.384-.852.576-1.476.576s-1.116-.192-1.476-.576c-.36-.384-.54-.912-.54-1.584V73.503c0-.696.192-1.248.576-1.656.408-.432.948-.648 1.62-.648.936 0 1.668.516 2.196 1.548l7.992 15.228 7.956-15.228c.528-1.032 1.236-1.548 2.124-1.548z" fill="#000"/>
    </g>
    <defs>
        <filter id="i7kihdrr5a" x="0" y="0" width="247" height="315" filterUnits="userSpaceOnUse" color-interpolation-filters="sRGB">
            <feFlood flood-opacity="0" result="BackgroundImageFix"/>
            <feColorMatrix in="SourceAlpha" values="0 0 0 0 0 0 0 0 0 0 0 0 0 0 0 0 0 0 127 0" result="hardAlpha"/>
            <feOffset dy="4"/>
            <feGaussianBlur stdDeviation="2"/>
            <feComposite in2="hardAlpha" operator="out"/>
            <feColorMatrix values="0 0 0 0 0 0 0 0 0 0 0 0 0 0 0 0 0 0 0.25 0"/>
            <feBlend in2="BackgroundImageFix" result="effect1_dropShadow_4024_902"/>
            <feBlend in="SourceGraphic" in2="effect1_dropShadow_4024_902" result="shape"/>
        </filter>
        <filter id="t4gh9xuu0b" x="84.14" y="48.471" width="79.721" height="78.878" filterUnits="userSpaceOnUse" color-interpolation-filters="sRGB">
            <feFlood flood-opacity="0" result="BackgroundImageFix"/>
            <feColorMatrix in="SourceAlpha" values="0 0 0 0 0 0 0 0 0 0 0 0 0 0 0 0 0 0 127 0" result="hardAlpha"/>
            <feOffset dy="4"/>
            <feGaussianBlur stdDeviation="2"/>
            <feComposite in2="hardAlpha" operator="out"/>
            <feColorMatrix values="0 0 0 0 0 0 0 0 0 0 0 0 0 0 0 0 0 0 0.25 0"/>
            <feBlend in2="BackgroundImageFix" result="effect1_dropShadow_4024_902"/>
            <feBlend in="SourceGraphic" in2="effect1_dropShadow_4024_902" result="shape"/>
        </filter>
    </defs>
</svg>
